<?xml version="1.0" encoding="iso-8859-1"?>
<!-- Generator: Adobe Illustrator 29.6.1, SVG Export Plug-In . SVG Version: 9.03 Build 0)  -->
<svg version="1.1" id="Layer_1" xmlns="http://www.w3.org/2000/svg" xmlns:xlink="http://www.w3.org/1999/xlink" x="0px" y="0px"
	 viewBox="0 0 60.61 52.13" style="enable-background:new 0 0 60.61 52.13;" xml:space="preserve">
<path style="fill:#8CAE3E;" d="M55.792,22.472c-0.15-0.6-0.76-0.97-1.36-0.83c-0.07,0.02-4.5,1.09-10.69,1.92l0,0v-2.3
	c0.36,0.03,0.65,0.06,0.94,0.06c0.31,0,0.63,0,0.94-0.05c2.98-0.57,5.06-2.35,6.34-5.01c1.22-2.57,1.3-5.34,1.07-8.13
	c-0.09-1.03-0.39-1.29-1.42-1.21c-2.18,0.17-4.31,0.61-6.32,1.49c-2.61,1.15-4.28,3.15-5.15,5.82c-0.57,1.74-0.44,3.43,0.61,4.98
	c0.26,0.39,0.62,0.73,0.9,1.06v3.57c-3.15,0.37-6.63,0.65-10.17,0.71l0,0v-5.61c0.14-0.06,0.23-0.06,0.34-0.09
	c1.19-0.33,2.14-1.02,2.81-2.04c1.67-2.54,1.95-5.28,0.98-8.14c-0.64-1.9-1.83-3.48-3.1-4.99c-0.37-0.44-0.76-0.86-1.16-1.26
	c-0.63-0.62-1.15-0.61-1.78-0.02c-0.19,0.17-0.38,0.36-0.54,0.56c-0.73,0.9-1.5,1.78-2.17,2.72c-1.78,2.48-2.58,5.2-1.85,8.25
	c0.57,2.38,1.75,4.25,4.25,4.99l0.13,0.02v5.61c-3.53-0.04-7.02-0.31-10.18-0.67l0,0v-1.74c0,0,0-0.04,0-0.24v-1.61
	c0.11-0.12,0.21-0.23,0.31-0.33c1.15-1.14,1.67-2.54,1.51-4.12c-0.28-2.76-1.63-4.97-3.91-6.52c-2.41-1.65-5.21-2.17-8.07-2.38
	c-0.78-0.06-1.11,0.28-1.2,1.05c-0.19,1.75-0.12,3.49,0.14,5.24c0.46,3.15,1.99,5.6,4.77,7.19c0.7,0.4,1.52,0.66,2.32,0.84
	c0.65,0.15,1.34,0.08,2.04,0.11v2.27c-6.35-0.84-10.92-1.95-10.99-1.97c-0.6-0.15-1.21,0.22-1.36,0.83
	c-0.15,0.6,0.22,1.21,0.82,1.36c0.08,0.02,4.89,1.18,11.54,2.05v1.92c-1.03,0.52-2.01,1.02-3.01,1.51c-0.41,0.2-0.7,0.5-0.7,0.97
	v3.82c0.01,0.56,0.45,0.94,0.97,0.95c0.53,0,0.97-0.39,1.02-0.97v-3.19c0.6-0.3,1.14-0.56,1.73-0.85v6.85
	c-1.1,0.42-1.88,1.48-1.88,2.72c0,1.61,1.31,2.92,2.92,2.92s2.92-1.31,2.92-2.92c0-1.24-0.78-2.3-1.87-2.72v-10.75
	c3.17,0.36,6.65,0.62,10.18,0.66v6.59c-0.19,0.08-0.36,0.16-0.53,0.22c-1.15,0.46-2.29,0.93-3.44,1.38
	c-0.43,0.17-0.67,0.47-0.67,0.92v3.87c0.01,0.53,0.43,0.91,0.92,0.92c0.48,0.02,0.93-0.35,1-0.86c0.05-0.36,0.02-0.74,0.03-1.1
	v-2.12c0.91-0.36,1.77-0.7,2.69-1.07v6.88c-1.67,0.46-2.9,1.97-2.9,3.78c0,2.17,1.76,3.93,3.93,3.93s3.93-1.76,3.93-3.93
	c0-1.79-1.21-3.29-2.85-3.76v-11.92c0.95,0.76,1.81,1.44,2.67,2.13v5.02c0,0.39,0.08,0.74,0.43,0.96c0.32,0.21,0.65,0.24,1,0.07
	c0.37-0.18,0.53-0.5,0.53-0.9v-5.53c0-0.42-0.15-0.74-0.48-1c-0.42-0.33-0.84-0.66-1.26-1c-0.98-0.78-1.95-1.57-2.9-2.32v-1.16
	c3.54-0.05,7.03-0.33,10.19-0.69v7.04c-1.13,0.4-1.94,1.47-1.94,2.74c0,1.61,1.31,2.92,2.92,2.92s2.92-1.31,2.92-2.92
	c0-1.22-0.75-2.26-1.81-2.7v-3.49l2.25,1.45c0.44,0.26,0.98,0.12,1.27-0.29c0.3-0.42,0.24-0.93-0.16-1.29l-3.37-2.27v-1.43
	c6.49-0.86,11.15-1.99,11.23-2.01c0.61-0.15,0.97-0.76,0.83-1.36L55.792,22.472z M16.612,16.482c-0.51-0.58-1.02-1.16-1.55-1.72
	c-0.31-0.32-0.7-0.41-1.11-0.2c-0.4,0.2-0.63,0.54-0.56,0.98c0.04,0.25,0.2,0.51,0.38,0.71c0.79,0.92,1.93,2.16,2.73,3.08
	l-0.19,0.02c-0.44-0.04-0.9,0-1.31-0.14c-2.16-0.7-3.7-2.1-4.53-4.21c-0.73-1.85-0.82-3.8-0.74-5.76c0-0.07,0.04-0.14,0.09-0.28
	c0.63,0.11,1.28,0.15,1.88,0.34c1.19,0.36,2.42,0.69,3.53,1.22c2,0.96,3.16,2.67,3.67,4.79c0.26,1.05,0.14,2.08-0.68,3.01
	c-0.56-0.63-1.09-1.23-1.63-1.83h0.02V16.482z M19.242,39.602c0,0.6-0.49,1.1-1.1,1.1s-1.1-0.49-1.1-1.1s0.49-1.1,1.1-1.1
	S19.242,38.992,19.242,39.602z M27.332,14.782c-1.02-2.38-0.89-4.72,0.47-6.93c0.64-1.05,1.41-2.01,2.14-3.01
	c0.11-0.16,0.28-0.27,0.49-0.46c0.37,0.42,0.73,0.79,1.04,1.18c1.2,1.53,2.31,3.14,2.59,5.12c0.25,1.74-0.04,3.42-1.04,4.92
	c-0.37,0.56-0.86,0.99-1.58,1.26l-0.03-5.97c0-0.9-0.35-1.38-1-1.38s-1,0.51-1.01,1.38v5.98
	C28.332,16.442,27.722,15.702,27.332,14.782z M31.872,46.202c0,0.81-0.66,1.47-1.48,1.47s-1.48-0.66-1.48-1.47s0.66-1.47,1.48-1.47
	S31.872,45.392,31.872,46.202z M41.912,15.292c0.46-1.94,1.52-3.51,3.24-4.56c1.78-1.09,3.77-1.51,5.83-1.77
	c0.05,0.11,0.11,0.19,0.11,0.27c0.08,2.13,0,4.25-0.94,6.22c-0.83,1.76-2.21,2.97-4.03,3.65c-0.49,0.19-1.06,0.19-1.59,0.28h-0.23
	c0.56-0.65,1.28-1.46,1.85-2.1c0.33-0.37,0.66-0.74,0.99-1.12c0.43-0.51,0.41-1.08-0.04-1.47c-0.43-0.37-0.98-0.34-1.42,0.14
	c-0.8,0.87-1.57,1.76-2.35,2.64c-0.23,0.26-0.46,0.52-0.74,0.83c-0.82-0.93-0.93-1.96-0.68-3.02l0,0L41.912,15.292z M42.632,36.972
	c-0.6,0-1.1-0.49-1.1-1.1s0.49-1.1,1.1-1.1s1.1,0.49,1.1,1.1S43.242,36.972,42.632,36.972z"/>
</svg>
